<svg width="92" height="46" viewBox="0 0 92 46" fill="none" xmlns="http://www.w3.org/2000/svg">
<path fill-rule="evenodd" clip-rule="evenodd" d="M83.7872 43.9647C83.0751 43.9647 82.5812 43.4116 82.5812 42.7271C82.5812 42.0426 83.0751 41.4895 83.7872 41.4895C84.4979 41.4895 84.985 42.0276 84.985 42.7271C84.985 43.4267 84.4993 43.9647 83.7872 43.9647ZM83.7872 40.56C82.481 40.56 81.5014 41.4717 81.5014 42.7271C81.5014 43.9811 82.481 44.8929 83.7872 44.8929C85.077 44.8929 86.0648 43.9811 86.0648 42.7271C86.0648 41.4731 85.077 40.56 83.7872 40.56ZM76.4674 44.7861H77.5307V43.1255H79.5572V44.7861H80.6205V40.6654H79.5572V42.237H77.5307V40.6654H76.4674V44.7861ZM71.517 45.9991V44.7861H74.8826V45.9991H75.8293V43.899H75.0926V40.6654H71.7269L71.5513 42.0919C71.4429 43.0365 71.2755 43.5567 71.0327 43.899H70.573V45.9991H71.5184H71.517ZM74.0278 43.899H72.0603C72.2867 43.5485 72.4033 43.068 72.5117 42.148L72.5872 41.5539H74.0265V43.899H74.0278ZM68.0224 43.9633C67.3117 43.9633 66.8177 43.4103 66.8177 42.7257C66.8177 42.0412 67.3117 41.4882 68.0224 41.4882C68.7345 41.4882 69.2202 42.0262 69.2202 42.7257C69.2202 43.4253 68.7345 43.9633 68.0224 43.9633ZM68.0224 40.5586C66.7162 40.5586 65.7379 41.4704 65.7379 42.7257C65.7379 43.9798 66.7176 44.8915 68.0224 44.8915C69.3121 44.8915 70.3 43.9798 70.3 42.7257C70.3 41.4717 69.3121 40.5586 68.0224 40.5586ZM62.1939 44.7848H63.2573V41.5525H65.4759V40.664H62.1939V44.7848ZM59.9808 44.7848H61.0524V40.664H59.9808V44.7848ZM57.4947 42.7901C57.9968 42.7901 58.2561 43.0023 58.2561 43.3514C58.2561 43.7498 58.0051 43.9455 57.4947 43.9455H56.3051V42.7887H57.4947V42.7901ZM56.3051 41.9427V40.664H55.2417V44.7848H57.662C58.8585 44.7848 59.3455 44.1002 59.3455 43.3514C59.3455 42.5533 58.8598 41.9427 57.6538 41.9427H56.3065H56.3051ZM52.5855 43.0749C53.03 43.0749 53.2221 43.2542 53.2221 43.5061C53.2221 43.8319 53.0135 43.9948 52.5855 43.9948H51.3136V43.0749H52.5855ZM52.5443 41.4553C52.9038 41.4553 53.1302 41.6018 53.1302 41.8701C53.1302 42.1877 52.8873 42.3178 52.5443 42.3178H51.3136V41.4553H52.5443ZM50.2502 44.7861H52.7282C53.7243 44.7861 54.3101 44.3138 54.3101 43.5964C54.3101 43.0516 53.9328 42.7586 53.5404 42.6518C53.8587 42.5615 54.1853 42.2534 54.1853 41.7565C54.1853 41.0391 53.5747 40.6654 52.7117 40.6654H50.2502V44.7861ZM42.6875 44.7861H43.7426L45.8693 42.018V44.7861H46.9326V40.6654H45.8693L43.7426 43.4267V40.6654H42.6875V44.7861Z" fill="#383838"/>
<path fill-rule="evenodd" clip-rule="evenodd" d="M36.7339 43.9638C36.0231 43.9638 35.5278 43.4107 35.5278 42.7262C35.5278 42.0417 36.0218 41.4886 36.7339 41.4886C37.446 41.4886 37.9303 42.0266 37.9303 42.7262C37.9303 43.4257 37.4446 43.9638 36.7339 43.9638ZM36.7339 40.5604C35.4277 40.5604 34.4494 41.4721 34.4494 42.7262C34.4494 43.9802 35.429 44.892 36.7339 44.892C38.0236 44.892 39.0115 43.9802 39.0115 42.7262C39.0115 41.4721 38.0236 40.5604 36.7339 40.5604ZM29.414 44.7865H30.4773V43.1245H32.5038V44.7865H33.5672V40.6658H32.5038V42.2374H30.4773V40.6658H29.414V44.7865ZM24.7655 44.7865H25.7877V42.9863L27.5453 44.7865H28.9434L26.8496 42.644L28.8171 40.6644H27.4616L25.7877 42.3593V40.6644H24.7655V42.3661L23.0834 40.6644H21.7182L23.7104 42.6687L21.6345 44.7852H22.9997L24.7655 42.9781V44.7852V44.7865ZM19.6477 40.0059H20.7097V38.793H19.6477V40.0059ZM17.8984 40.0059H18.9617V38.793H17.8984V40.0059ZM19.3047 41.3654C19.8494 41.3654 20.2418 41.6583 20.4024 42.1799H18.192C18.3265 41.6665 18.7271 41.3654 19.3047 41.3654ZM19.3047 40.559C18.0081 40.559 17.0861 41.4461 17.0861 42.7248C17.0861 43.9624 18.015 44.8906 19.3884 44.8906C20.8277 44.8906 21.4067 44.0035 21.4726 43.5791H20.4175C20.342 43.6927 20.0662 44.0267 19.3884 44.0267C18.6846 44.0267 18.2002 43.538 18.1577 42.8946H21.5233V42.7809C21.5233 41.4379 20.6109 40.5576 19.3047 40.5576V40.559ZM12.5049 45.9981V44.7852H15.8705V45.9981H16.8172V43.898H16.0804V40.6644H12.7148L12.5392 42.0896C12.4294 43.0342 12.262 43.5544 12.0191 43.898H11.5595V45.9981H12.5062H12.5049ZM15.0157 43.898H13.0482C13.2732 43.5476 13.3912 43.067 13.4996 42.1471L13.5751 41.5529H15.0143V43.898H15.0157ZM9.95696 42.7248C9.95696 43.4244 9.49595 43.9624 8.80169 43.9624C8.08137 43.9624 7.6135 43.4244 7.6135 42.7248C7.6135 42.0239 8.08274 41.4872 8.80169 41.4872C9.49595 41.4872 9.95696 42.0252 9.95696 42.7248ZM9.94735 44.7852H11.0107V40.6644H9.93912V41.2832C9.84719 41.1121 9.42049 40.5741 8.52454 40.5741C7.42827 40.5741 6.52409 41.3886 6.52409 42.7234C6.52409 44.0664 7.42827 44.8728 8.51631 44.8728C9.45342 44.8728 9.86503 44.2951 9.94735 44.1308V44.7824V44.7852ZM4.38644 44.7852H5.51701V39.0024H4.38644V41.3886H1.12234V39.0024H0V44.7852H1.12234V42.3661H4.38644V44.7852Z" fill="#383838"/>
<path fill-rule="evenodd" clip-rule="evenodd" d="M87.0078 40.885H87.7817V42.6702H88.3195V40.885H89.0933V40.4141H87.0078V40.885ZM90.287 40.4141H89.4789V42.6702H89.9783V41.0055L90.545 42.6702H90.9044L91.4738 40.9891V42.6702H91.9966V40.4141H91.22L90.7549 41.7899L90.287 40.4141Z" fill="#383838"/>
<path fill-rule="evenodd" clip-rule="evenodd" d="M21.0679 26.8109V19.3798C21.0679 15.3043 17.7064 11.9488 13.6218 11.9488C9.53585 11.9488 6.17845 15.3043 6.17845 19.3798C6.17845 23.4568 9.53585 26.8109 13.6218 26.8109H21.0679ZM54.7929 25.049C53.8942 23.298 53.4236 21.3608 53.4236 19.3798C53.4236 12.4909 59.0696 6.85468 65.9751 6.85468C73.6956 6.85468 79.627 13.8285 78.3578 21.4293L78.2741 21.929H58.9859C60.0547 24.8231 62.8509 26.8109 65.9737 26.8109H79.8931V0H84.9972V31.905H65.9092C63.6522 31.905 61.4665 31.2821 59.5512 30.1321C59.3865 30.0267 59.226 29.9172 59.0654 29.8049C57.0225 31.163 54.5912 31.905 52.1311 31.905H52.0447C45.146 31.905 39.5137 26.2578 39.5137 19.3798V11.9734C35.6926 12.2828 32.67 15.5206 32.67 19.3798V31.905H27.5632V19.3798C27.5632 12.7072 32.8703 7.18325 39.5137 6.86974V0H44.6219V6.85468H51.3847V11.9488H44.6219V19.3798C44.6219 23.4582 47.9807 26.8109 52.068 26.8109C53.2123 26.8109 54.3662 26.5467 55.3966 26.0442C55.1812 25.7211 54.9795 25.3898 54.7901 25.049H54.7929ZM72.9657 16.8335C71.8955 13.9366 69.102 11.9488 65.9751 11.9488C62.8496 11.9488 60.0547 13.938 58.9859 16.8335H72.9657ZM26.1733 31.905H13.5971C6.69846 31.905 1.07031 26.2578 1.07031 19.3798C1.07031 12.4896 6.71492 6.85468 13.6204 6.85468C20.526 6.85468 26.1733 12.4896 26.1733 19.3798V31.905Z" fill="#383838"/>
</svg>
